# xmcd CD database file
#
# Track frame offsets:
#	150
#	13347
#	26522
#	42797
#	55932
#	71610
#	84932
#	100195
#	116942
#	133525
#	146177
#	159732
#	174532
#	187797
#
# Disc length: 2676 seconds
#
# Revision: 0
# Processed by: cddbd v1.5.1PL0 Copyright (c) Steve Scherf et al.
# Submitted via: CDex 1.51
#
DISCID=be0a720e
DTITLE=BILLIE HOLIDAY - BILLIE'S BLUES
DYEAR=1995
DGENRE=Blues
TTITLE0=EAST OF THE SUN
TTITLE1=YOU GO TO MY HEAD
TTITLE2=THESE FOOLISH THINGS
TTITLE3=I ONLY HAVE EYES FOR YOU
TTITLE4=SOLITUDE
TTITLE5=LOVE FOR SALE
TTITLE6=TENDERLY
TTITLE7=AUTUMN IN NEW YORK
TTITLE8=STORMY WEATHER
TTITLE9=YESTERDAYS
TTITLE10=HOW DEEP IS THE OCEAN
TTITLE11=LOVERMAN
TTITLE12=BILLIE'S BLUES
TTITLE13=MAY MAN
EXTD=YEAR: 1995
EXTT0=
EXTT1=
EXTT2=
EXTT3=
EXTT4=
EXTT5=
EXTT6=
EXTT7=
EXTT8=
EXTT9=
EXTT10=
EXTT11=
EXTT12=
EXTT13=
PLAYORDER=
